<svg xmlns="http://www.w3.org/2000/svg" width="80" height="80"><defs><linearGradient id="a" x1="-.666" y1=".473" x2="1.668" y2=".524" gradientUnits="objectBoundingBox"><stop offset="0" stop-color="#42ffd9"/><stop offset="1" stop-color="#cc00d4"/></linearGradient></defs><g transform="translate(-596 -470)" fill="url(#a)"><path d="M645.272 506.982a79.606 79.606 0 00-8.1-3.666 18.158 18.158 0 01-4.446-2.49c-2.64-2.107-2.134-5.527.958-6.881a7.816 7.816 0 012.722-.561 20.667 20.667 0 0110.233 2.025c1.614.78 2.148.534 2.7-1.149.575-1.778 1.053-3.584 1.587-5.376a1.878 1.878 0 00-1.047-2.441 2.029 2.029 0 00-.171-.059 26.056 26.056 0 00-6.461-1.934c-2.928-.451-2.928-.465-2.941-3.406-.014-4.145-.014-4.145-4.173-4.145-.6 0-1.2-.014-1.806 0-1.943.055-2.271.4-2.326 2.353-.027.876 0 1.751-.014 2.64-.014 2.6-.027 2.558-2.517 3.461-6.019 2.189-9.741 6.293-10.137 12.86-.356 5.814 2.681 9.741 7.456 12.6 2.941 1.765 6.2 2.8 9.316 4.186a13.835 13.835 0 013.393 2 4.652 4.652 0 01-1.108 8.154 11.159 11.159 0 01-5.978.78 26.676 26.676 0 01-9.111-2.722c-1.683-.876-2.175-.643-2.75 1.177-.493 1.573-.93 3.16-1.368 4.747-.588 2.134-.369 2.64 1.669 3.639a29.068 29.068 0 008.208 2.353c2.216.356 2.285.451 2.312 2.75.014 1.04.014 2.093.027 3.133a1.862 1.862 0 002 2.107c1.532.027 3.078.027 4.61-.014a1.755 1.755 0 001.909-1.584 1.785 1.785 0 00-.009-.4c0-1.423.068-2.859.014-4.282a2.262 2.262 0 011.908-2.566l.048-.006a15.462 15.462 0 008.058-5.172c5.855-7.117 3.626-17.528-4.665-22.111z"/><path d="M636 550a40 40 0 1140-40 40.045 40.045 0 01-40 40zm0-75a35 35 0 1035 35 35.04 35.04 0 00-35-35z"/><path d="M607.35 535.25l53.9-53.9 3.535 3.534-53.9 53.9z"/></g></svg>