<svg xmlns="http://www.w3.org/2000/svg" width="79.694" height="80.244"><defs><linearGradient id="a" x1="-.512" y1="1" x2="1.425" y2="1" gradientUnits="objectBoundingBox"><stop offset="0" stop-color="#8066ff"/><stop offset="1" stop-color="#f6a49c"/></linearGradient></defs><path d="M49.455 1.017l-6.549 6.03a3.887 3.887 0 01-5.252 0l-6.613-5.965a3.906 3.906 0 00-6.224 1.361L19.436 15.41h41.623L55.678 2.378a3.906 3.906 0 00-6.223-1.361zM7.117 27.275a1.948 1.948 0 00.843 3.7h64.51a1.957 1.957 0 00.907-3.7l-7.91-4.085h-50.44zM.5 58.46l3.436 18.673a3.779 3.779 0 003.83 3.108h65.029a3.839 3.839 0 003.825-3.112l3.436-18.673a3.934 3.934 0 00-2.4-4.343A112.92 112.92 0 0053.8 48.086a3.829 3.829 0 00-4.085 2.269l-6.55 14.847a3.244 3.244 0 01-5.965-.061L30.846 50.42a3.922 3.922 0 00-4.146-2.334 107.677 107.677 0 00-23.8 6.03A3.789 3.789 0 00.5 58.46z" transform="translate(-.423)" fill="url(#a)"/></svg>