<svg xmlns="http://www.w3.org/2000/svg" width="79.35" height="79.356"><defs><linearGradient id="a" x1="1" y1=".493" x2=".044" y2=".506" gradientUnits="objectBoundingBox"><stop offset="0" stop-color="#687bff"/><stop offset="1" stop-color="#ffa2fc"/></linearGradient></defs><path d="M476 380.678a39.463 39.463 0 018.277-24.214 40.235 40.235 0 014.537-4.953 39.6 39.6 0 0153.552-.168c.623.57 1.225 1.164 1.811 1.772q.312.32.619.647a39.681 39.681 0 017.441 11.5c.108.25.2.507.3.76a39.385 39.385 0 012.625 10.8c.11 1.134.168 2.286.18 3.447 0 .137.01.273.008.41a39.72 39.72 0 01-.618 6.935c-.14.792-.3 1.574-.49 2.352A39.307 39.307 0 01551 398.7a39.663 39.663 0 01-75-18.026zm7.473-16.968l-1.3 1.581v1.136a36.4 36.4 0 0061.746 37.2h-1.2v-2.418l-1.391-1.871v-2.911l-1.059-1.057-.092-1.211 1.345-2.57-2.553-4.509.3-3.06-2.3-.238-.847-.849h-1.544l-.785.726h-2.722l-.092.241h-1.515l-3.479-3.963.031-3.087.574-.211.213-1.182h-.815l-.335-1.24 4.026-2.9v-2.058l1.97-1.094.795.08h1.623l1.266-.68 4.087-.318v2.089l3.225.817.636.454h.589v-1.136l1.862-.181 1.769 1.317h2.9l.2-.183q-.434-1.472-.986-2.887l-1.9.033-.951-1.045-.183-1.679-.975.532-.524 2.053-1.407-1.5-.057-1.416-1.358-1.171-.5-.5h-1.577l.5 1.4 1.9 1.057.329.349-.409.2.02 1.114-.923.385-.788-.173-.493-.7 1.282.068.347-.467-2.843-1.917-.215-.816-1.156 1.045-1.174-.24-1.782 2.316-.347.907-1.141.1-1.689.009-1.006-.472-.3-2 .364-.955 1.715-.375 1.87.375.229-1.037-.8-.187.273-1.613 1.884-.3 1.317-1.86 1.361-.229 1.228.181h.451l-.247-1.746-1.495.6-.523-1.306-.866-.121-.164-.9.708-.77 1.679-.657.433-.775a36.305 36.305 0 00-45.43-2.13l1.836-.015.818.453 1.542.333.119.606 2.453.092-.333-.786-2.179-.06.511-.475-.18-.576h-1.968l2.148-1.6h2.057l.968 1.332 1.606.091.967-.94.728.364-1.333 1.3s-1.845.031-1.755.031a6.108 6.108 0 01.152 1.271l2.237-.062.241-.6 1.543-.093.181-.906-.907-.153.3-.816.7-.212 2.42.121-1.333 1.211.213.937 1.392.212-.092-1.694 1.332-.7 2.36-.273 3.419 1.515v1.3l1.09.273-.535 1.028h-1.543l-.457 1.18-3.528-.833 2.773-1.477-1.057-.9-2.391.3-.209.216h-.008l-.038.052-.687.715-1.138.1.092.568.4.166-.016.187-.925.132-.068.537-.885.045-.16-1.067-1.588.483-3.246 1.9.365 1.336.907.59 1.815.252v2.063l.839-.136.773-1.612 1.931-.613v-2.474l1.074-.812 2.595.613-.183 1.634h.7l1.906-.937.092 2.146 1.391.847-.059 1.274-1.33.454.091.421 1.6.729-.032.877-.464.04-.005-.025-2.022-.623-.086-.648.59-.407v-.59l-.636-.16-.158.545-1.116.171-.112-.038v.056l-.385.059-.315-.636-.364-.16h-.795l-.361.3v.653l.68.227.671.094-.15.067-.612.68-.271-.339-.591-.157-1.612 1.517.211.173-2.381 1.319-2.239 2.331-.153 1.038-2.245 1.475-1.113 1.12.122 2.239-1.544-.718.012-1.31h-4.3l-2.224 1.126-.967 1.781-.382 1.411.625 1.369 1.752.214 2.782-1.863.244.922-.851 1.606 2.12.363.211 3.273 2.9.493 1.846-2.133 2.241.454.787 1.094 2.147-.126.06-.636 1.18.576 1.328 2.085 2.3.034.849 1.484.121 1.813 2.542.969 3.208.033.938 1.538 1.422.454-.273 1.272-1.559 1.98-.454 4.383-1.4 1.114-2.087-.064-.7 1.21.516 2.272-2.27 2.9-.726 1.331-2.165 1.039-1.423.215-.059.6 1 .285-.121.651-.9.859.544.682 1.076.032-.06.833-.285.815-.091.666 1.592 1.342-.211.7-2.168-.04-2.156-1.883-1.679-2.953.235-2.849-1.271-1.7.514-2.876-.756-.212v-6.233s-2.118-1.6-2.239-1.6-1.12-.271-1.12-.271l-.211-1.182-2.755-3.448.273-1.241.089-2.027 1.9-1.331-.273-2.271-2.783-.211-2.185-2.456-1.542-.421-1-.183.121-.907-1.272-.181v.514l-3.177-.787-1.28-1.957.519-.949-2.012-2.936-.345-2.147h-.802l.273 2.087 1.391 2.147-.151.849-1.18-.181-1.451-2.476v-2.88l-1.513-.728v-3.208l1.3-1.581 1.511-1.836-.058-.661q-.771 1.222-1.449 2.503zM551 372.441l.258.486c-.046-.209-.1-.414-.144-.62zm-3.118-8.031v1.61l.708-.1.375.014c-.269-.6-.552-1.2-.853-1.786zm-45.286-.048l-.112.273-.546.047-.182.794h1.157l.52-.523v-.706zm-2.884-.66l-.137.908.636.341 1.542-2.156h-1.2zm4.29.544l.317.457h1.157V364l-1.382-.409H504zm-1.525-.246l.68-.126.544-.351v-.723h-1.224zm1.926-.969l.44.367.446-.367-.557-.346zm-1.316-.529l.75-.181-.75-.682zm-3.177-.749l-.2.522.816.227h2.174v-.749h-.313v-.433h-1.43zm-2.269-2.724l.588 1.2.931-.3.3-1.156-.862-.206zm44.5-1.541l-1.565.8.157.52 2.5.023.715-1.064q-.861-1.058-1.8-2.047zm-46.594-2.633l-1.269.362.341.409 1.792-.113s.068-.794 0-.794-.86.136-.86.136zm-1.269-1.771v.728h1.792l.373-.5v-.568h-1.3l-.068.273h-.8zm15.683 10.37l.339-.422.454.357-.078.528-.756.064zm1.678.116h-.248v-.538h1.043l.215-.555.417-.008.474.1-.2.421-.518.043-.1.5-.4.249-.64.053c-.025-.151-.039-.265-.039-.265zm21.258-2.89l.118-1.255.883-.183-.077-.59-.82-.514-.574-.393v-.578l.335-.512 1.192-.243.3 1.453.635 1.029.423.486.771.3-.726.863-1.407.136zm-2.434-.485v-.756l.726-1.165.979-.227.7.3-.064.787-1.495 1.059z" fill="url(#a)" transform="translate(-476 -341.001)"/></svg>