<svg xmlns="http://www.w3.org/2000/svg" width="1886.585" height="936.214"><path d="M890.921 141.248c.2-2.725.374-5 .567-7.607-2.449-.335-2.877-2.058-3.048-4.377-.614-8.319 3.883-15.416 11.773-18.083.929-.314 1.865-.6 2.805-.88 5.6-1.656 5.6-1.654 10.727.587a16.133 16.133 0 005.74-8.531 19.259 19.259 0 017.71-11.045c3.653-2.387 7.465-4.845 8.711-9.926l-4.238-.893c.257-.513.345-1.075.643-1.225 13.273-6.721 27.651-9.951 42.038-13.07 2.136-.464 4.566.014 6.786.445 3.5.677 6.815.913 9.9-1.309 1.585-1.145 3.2-1.084 5.087-.427 3.062 1.063 6.263 1.724 9.779 2.653l-2.026 4.517c2.2 0 4.123-.109 6.023.031a19.592 19.592 0 015.781.872c10.846 4.351 22.35 6.183 33.594 9.013 1.742.439 3.523.745 5.237 1.278 1.56.484 3.209 1.032 3.354 3.1a4.187 4.187 0 01-2.469 4.357c-5.2 2.844-10.558 3.983-16.464 2.637a104.926 104.926 0 00-10.648-1.551 37.205 37.205 0 00-4.2-.025c.644 2.924 3.423 2.284 4.834 3.526-1.126 4.589-.088 6.946 4.193 8.931 3.681 1.707 7.447 3.234 11.366 4.923l1.956-3.76c-1.806-.421-3.209-.63-4.525-1.09a28.779 28.779 0 01-3.474-1.81c2.753-2.684 5.339-2.393 7.851-1.767 2.052.513 3.979 1.531 6.029 2.06.913.236 1.992-.176 3.52-.357l-2.046-4.137 10.889-6.908 6.828 2.032c1.16-1.4 1.834-2.8.246-3.544-1.785-.837-2.153-2.188-2.6-3.8-.63-2.259-1.51-4.449-2.38-6.942 4.749-.049 10-1.759 13.043 4.431l-3.168 2.838c3.39 4.506 5.973 4.537 9.475.324a5.189 5.189 0 012.2-1.874c7.87-2.023 14.679-7.256 23.4-7.587l.338 4.572c.388.14.759.41.923.316a29.784 29.784 0 0112.924-3.852c2.576-.189 5.026-2.13 7.536-3.281l3.651 5.2 3.386-3.144c-2.43-4.648-8.19-3.737-10.962-7.324 1.632-2.4 3.632-1.545 5.055-.3 3.782 3.327 8.27 3.366 12.9 3.659 9.425.6 18.128 4.024 26.78 7.515 1.353.548 2.692 1.131 4.018 1.689 1.974-3.505 2.005-4.143-.683-5.588-2.134-1.147-4.609-1.654-6.789-2.738a7.848 7.848 0 01-3.022-2.746c-1.328-2.128-2.321-4.463-3.666-7.133l2.449-2.017c1.12-3.536 1.7-6.6 3.095-9.235.683-1.293 2.873-1.787 4.644-2.793 2.093 5.143 6.87 4.051 10.944 5.444v6.84c3.25 1.638 5.071 4.509 6.764 7.833 1.5 2.945 4.176 5.375 6.614 7.743 3.921 3.809 3.932 6.778-.314 10.468-.7.609-1.348 1.278-2.085 1.98 3.887 2.212 7.612 2.239 9.549.222 3.382-3.521 3.456-6.614.234-11.118 1.433-3.979 6.934 1.359 7.905-3.526-2.748-2.469-3.389-2.374-10.156 1.638-3.542-1.551-6.321-3.63-6.339-8.194 0-1.016-1.186-2.239-2.125-2.99a46.839 46.839 0 00-5.162-3.115l4.93-5.457c-1.855-1.1-3.955-2.354-6.054-3.606l.852-1.408c.921-.447 1.841-.9 2.708-1.32 2.561 1.687 3.31 4.174 4.01 6.713a9.431 9.431 0 006.13 6.53c2.416.911 4.4.439 5.666-2.272-2.374-1-5.888.441-6.341-4.123.376-1.41 1.88-1.97 3.848-2.105a25.159 25.159 0 0114.6 3.39 7.236 7.236 0 007.006.351c.472-.211.476-1.465.96-3.171-4.591 2.571-7.04.349-9.541-2.173a51.269 51.269 0 00-5.27-4.086 10.6 10.6 0 016.753-1.558 131.166 131.166 0 0013.236.09 10.53 10.53 0 002.364-.77l-5.028-4.788c4.123-1.108 7.482-2.149 10.905-2.9 4.783-1.045 9.688-1.6 14.406-2.867a39.4 39.4 0 0116.048-.729 11.11 11.11 0 0010.33-3.29c-.213-.809-.445-1.675-.675-2.538 6.714-3.5 13.813-2.781 20.823-2.791 3.119 0 2.867 3.232 5.239 5.2 5.36 0 11.438-.343 17.458.109a75.362 75.362 0 0114.344 2.727c1.551.429 2.639 2.532 4.1 4.041-4.627 4.835-10.552 6.647-15.789 9.982 6.052 1.7 8.8 1.106 13.037-2.6 3.625-3.173 7.205-3.353 10.875-.088a9.8 9.8 0 007.576 2.658c3.6-.2 7.22-.064 10.832-.043 2.59.016 5.286-.435 7.226 2.087a3.22 3.22 0 002.2.809c6.354.273 12.707.468 19.479.7-.876-1.359-1.685-2.612-2.75-4.266 1.176-.361 2.227-1.063 3.119-.9 7.884 1.443 15.765 2.922 23.583 4.679a9.082 9.082 0 014.385 2.965c4.771 5.514 11.933 6.653 17.87 10 1.537.868 2.9.154 3.1-1.82.144-1.443.185-2.9.28-4.47 9.786 3.3 19.649.692 29.715 1.3l-5.455-4.738c3.2-2.042 6.553-1.506 9.812-1.235 9.118.761 18.233 1.549 27.333 2.475a29.263 29.263 0 018.094 1.66 64.424 64.424 0 0024.934 4.439c10.521-.025 20.923.425 31.25 2.631 2.6.554 4.7 1.408 6.146 3.528 1.492 2.19 3.5 2.528 5.956 2.524 8.7-.012 17.4-.076 26.079.38 4.693.248 9.325 1.551 14 2.3a43.9 43.9 0 0010.831.673c-2.319-2.13-4.64-4.26-7.747-7.115 5.414.665 9.736 1.168 14.047 1.73q12.4 1.619 24.784 3.306a60.747 60.747 0 017.235 1.264c13.456 3.542 26.83 7.406 40.345 10.7 9.355 2.28 18.9 3.772 28.351 5.7 6.01 1.225 6.162 1.375 9.716 4.835l-3.648 2.538c1.547 1.835 5.032 2.383 3.768 6.107-4.4-.534-8.894-.979-13.349-1.677-1.39-.218-3.14-.759-3.916-1.773-1.906-2.487-4.576-3.037-7.254-3.585-4.451-.911-8.946-1.6-13.987-2.485 3.123 5.635-1.685 6.747-5.326 9.384 6.753 2.908 12.945 5.588 19.148 8.233 2.992 1.276 3 1.246 3.618 4.665a32.227 32.227 0 01-3.176-.981c-6.764-2.9-11.213-.735-16.481 4.667-2.752 2.822-5.526 6.05-5.461 11.024a72.772 72.772 0 01-7.6-2.746c-3.359-1.654-5.949-.636-8.4 1.693-.813.772-1.7 1.471-2.547 2.206-3.409-4.2-3.411-4.207-8.233-2.479-1.687.6-3.366 1.229-5.831 2.13 4.365 2.869 1.976 7.7 4.217 11.055 3.975 1.342 9.805-.408 10.193 6.624 3.384 1.685 6.873 3.419 11.365 5.654-2.3.525-3.692.841-5.7 1.3 1.931 3 3.747 5.828 5.6 8.715l-3.564 3.589 4.248 6.249c-2.206.517-4.094 1.328-3.934 4.182 4.174 2.922 3 6.649 1.19 10.858-4.231-1.408-6.969-4.5-9.931-7.148-8.92-7.966-17.72-16.072-26.526-24.17a8.306 8.306 0 01-2.292-3.064c-1.141-3.21-2-6.518-3.052-10.072 4.615-2.4 5.428-6.809 6.021-11.482a27.019 27.019 0 012.093-7.014c.979-2.3 1.147-4.33-.3-6.47-.914-1.354-1.554-2.887-2.419-4.279-2.081-3.343-2.6-3.341-5.711-.062.778 1.2 1.572 2.434 2.647 4.1-1.777 2.22-3.655 4.57-5.56 6.949a12.445 12.445 0 01-6.723-5.432c-1.806-3.177-4.508-4.447-8.108-4.225-2.259.14-4.535.027-6.713.027l-2.787 12.157 7.765 5.063a35.658 35.658 0 01-16.767 2.375c-.55-.043-1.422-.5-1.529-.921-.753-2.959-3.08-1.892-4.839-1.89-7.513.01-15.028.074-22.539.277-4.229.113-8.449.612-12.68.8-4.839.209-5.961 3.907-7.117 7.482a15.181 15.181 0 00-.835 5.313c.275 5.212-2.181 9.05-5.666 12.5a29.5 29.5 0 00-2.134 2.785c1.734.786 3.109 1.886 4.54 1.964a7.782 7.782 0 016.832 3.975c.209.351.8.474 1.418.815-.2-1.908-.38-3.622-.651-6.183 2.713 3.688 4.921 6.692 7.4 10.058 1.4-2.149 2.36-3.632 3.238-4.983 3.066-.9 5.545.337 8.231 1.133 8.888 2.633 13.216 9.51 16.959 17.144q3.134 6.39 6.716 12.559a13.888 13.888 0 012.157 8.369 32.224 32.224 0 000 5.9c.948 9.214-1.406 17.9-4.2 26.493a7.522 7.522 0 01-2.356 3.507 73.25 73.25 0 01-6.64 4.11l-5.065-3.339c-6.787 2.926-8.437 5.576-7.73 12.748.277 2.807-.2 5.157-2.6 6.946-1.833 1.365-3.542 2.9-5.982 4.909 4.4 3.288 7.646 6.362 11.448 8.414 6.444 3.48 10.674 8.365 12.4 15.479a49.154 49.154 0 001.721 4.919c-3.477 4.79-8.717 6.048-13.536 7.94-1.788.7-2.165.281-5.3-3.054.283-.952.677-2.009.912-3.1.658-3.084.19-6.095-2.229-8.133-2.5-2.1-3.643-4.125-.934-7.581-4.006-1.215-7.339-2.424-10.768-3.2-2.625-.6-4.2-1.623-3.879-4.568.068-.616-.371-1.274-.374-1.913-.014-3.2-.747-5.629-4.549-6.312-3.992-.716-7.77-1.307-10.876 2.1-1.508 1.654-2.553 3.893-5.288 4.166.067-3.991-4.868-7.542-.45-11.7l-3.657-3.021c-3.06.913-4.626 3.376-5.968 5.684a14.216 14.216 0 01-7.2 6.343 7.1 7.1 0 00-1.732.919c-1.829 1.439-1.642 3.661.439 4.687a34.186 34.186 0 003.68 1.377c3.047 1.09 5.68 2.584 5.783 6.109 2.549 1.219 4.008-.332 5.588-1.434 5.075-3.546 10.357-1.5 15.561-.482.46.09.688 1.346 1.222 2.483-4.95-.517-7.365 2.649-9.639 5.9-2.046 2.922-3.907 5.974-6.088 9.335a42.941 42.941 0 0117.4 16.1 11.309 11.309 0 002.4 2.458c2.023 1.691 3.386 3.532 1.654 6.187l4.116 2.132c-.927 2.309-1.814 4.511-2.7 6.717 2.852 3.3 4.839-.7 7.576-1.1a127.606 127.606 0 01-6.477 28.818 38.813 38.813 0 01-11.348 16.834 34.646 34.646 0 00-3.479 4.09c-.618.731-1.121 1.757-1.915 2.1-4.861 2.122-9.8 4.065-14.691 6.124a9.671 9.671 0 00-2.9 1.662c-2.488 2.335-5.065 3.651-7.873 1.519l-7.831 3.85c-.122 1.527-.3 3.747-.47 5.933-4.026.833-4.271.737-4.747-2.405-.242-1.592-.283-3.218-.421-4.917-5.132-1.972-9.819-2.6-13.716 2.354a53.583 53.583 0 01-4.587 4.437c-4.808 4.784-5.291 9.411-1.143 14.558 3.174 3.944 6.751 7.562 10.085 11.379 3.655 4.186 7.8 8.094 10.667 12.77 2.125 3.464 2.64 7.942 3.7 12.013a13.748 13.748 0 01.051 3.928c-.106 2.557.661 5.826-.624 7.507a28.391 28.391 0 01-8.715 6.926c-2.339 1.317-4.281 2.4-5.535 5.024-2.05 4.3-6.458 6.306-9.992 9.161-2.393-3.039-1.527-5.976-.129-8.886-1.943-2.216-3.792-3.979-6.751-2.216-2.588-7.139-9.532-10.289-13.093-16.181l-6.671.6c-1.118-2.707 2.775-7.26-3.035-7.827-2.062 1-2.592 2.918-2.532 4.933.123 4.211-1.083 8.083-2.585 11.923a19.236 19.236 0 00-1.178 3.745c-.558 3.322-.645 6.487 2.576 8.837a9.663 9.663 0 014.055 8.533c-.109 2.686 1.133 4.262 3.419 5.372 7.668 3.721 12.1 10.794 17.33 17.012a6.079 6.079 0 01.889 4.149 20.465 20.465 0 003.486 13.448c2.1 3.337 3.585 6.926 3.206 11.2-2.7.7-4.156-.665-4.872-2.852a6.586 6.586 0 00-4.332-4.289c-5.906-2.253-10.144-6.676-13.659-11.611-2.013-2.826-3.527-6.347-1.153-10.07a3.072 3.072 0 00.013-2.7c-3.616-5.828-7.363-11.576-11.1-17.324-.249-.38-.778-.575-1.287-.934-1.012.386-2.06.784-3.187 1.211-.275-.419-.712-.784-.738-1.18-.17-2.407-.376-4.825-.318-7.234.063-2.758.727-5.539.495-8.256-.195-2.284.193-4 2.378-5.428l-12.146-43.3c-3.05 2.38-5.61 4.285-8.067 6.316-4.645 3.84-5.262 3.934-11.318.825 0-2.51-.482-5.375.1-8 1.251-5.647-1.219-9.044-5.828-11.554a9.144 9.144 0 01-1.244-1.032c.242-1.859.489-3.755.817-6.288-3.587 1.595-5.219-.531-7.055-2.674-2.7-3.154-4.987-6.442-5.549-10.673-.37-2.789-1.874-4.794-4.7-6.524-.665 4.771-3.727 6.093-7.923 5.9a13.53 13.53 0 00-3.339.729c-2.189.484-3.934 1.847-6.594-.273s-7.383.96-7.2 4.566c.25 4.8-2 7.148-6.13 8.64a5.459 5.459 0 00-2.74 2.518 33.777 33.777 0 01-12.834 13.862 12.65 12.65 0 00-5.389 6.15 8.612 8.612 0 01-6.275 5.537 6.728 6.728 0 00-3.741 2.079 4.866 4.866 0 00-.408 4.012 26.822 26.822 0 011.9 12.007c-.452 6.8-1.063 13.585-1.64 20.782-2.795.131-3.727 2.292-3.646 5.5l3.905 1.966c.431-1.081.766-1.919 1.315-3.3 1.1.54 2.434.819 3.183 1.631a74.332 74.332 0 016.236 7.56c3.71 5.28 3 10.394-1.791 14.734-2.951 2.67-6.429 1.931-7.386-2-.843-3.452-.833-7.119-1.106-10.7-.123-1.623-.021-3.265-.021-4.878-6.312-4.48-6.559-4.371-10.386 2.011-.845 1.414-2.708 3.544-3.622 3.327-2.2-.525-4.143-2.208-6.128-3.517-.32-.211-.375-.889-.472-1.367-2.028-10.047-7.476-18.789-10.839-28.336a116.829 116.829 0 00-6.17-13.361c-5.422-10.788-8.369-22.368-10.871-34.061-.987-4.619-1.168-9.407-1.765-14.113-.158-1.258-.5-2.493-.755-3.729-2.608-.154-2.783 1.213-2.9 3.035a6.134 6.134 0 01-9.443 4.7c-3.628-2.43-7.749-4.531-8.492-9.965.938-.673 2.02-1.447 3.832-2.744-9.2-2.389-14.556-8.915-20.45-14.763a5.183 5.183 0 00-2.889-1.56 72.709 72.709 0 00-11.64-.363 85.664 85.664 0 01-21.533-1.04c-5.307-.887-10.6-1.857-15.906-2.764-6.5-1.112-6.914-1.533-7.634-8.03-2.961-1.712-5.549-2.352-8.658.529-3 2.779-8.886 2.268-12.405-.027a50.385 50.385 0 00-5.981-3.314 22.4 22.4 0 01-10.567-9.881c-1.311-2.458-2.748-4.849-4.116-7.277-1.98-3.513-6.711-4.831-9.9-2.44-4.515 3.388-6.013 7.1-1.919 12.032 1.572 1.892 3.4 3.6 4.775 5.617a84.942 84.942 0 014.63 7.975c1.192 2.237 2.2 4.572 3.653 7.624l3.77-5.411c4.819 3.093 4.661 7.919 4.542 12.541 1.966 2.013 3.944 1.989 6.408 1.439 4.593-1.026 8.607-2.686 11.861-6.286 2.7-2.982 5.845-5.555 8.583-8.114 1.369 4.283 2.7 8.381 3.981 12.5a4.388 4.388 0 004.726 3.456c6.647-.306 10.092 4.7 14.108 8.609.753.731.7 2.8.331 4.045a13.121 13.121 0 01-2.526 4.176c-1.874 2.35-3.474 4.706-1.918 8.243l-4.819.646a9.1 9.1 0 00-.34 1.7c-.092 3.7-.7 6.934-4.517 8.951-1.56.823-2.436 2.945-3.869 4.794l-4.406.445c-.254.279-.62.492-.659.755-.646 4.293-3.142 6.444-7.429 7.027-2.235.306-4.373 1.307-6.565 1.954-2.526.743-5.077 1.2-5.03 4.884.012.921-1.785 2.145-2.99 2.752-3.065 1.543-6.339 2.674-9.388 4.242-2.292 1.18-4.351 2.807-6.546 4.184a23.873 23.873 0 01-2.939 1.551c-2.191.983-4.385 1.974-6.63 2.828a15.291 15.291 0 01-4.155 1.084c-2.27.176-4.566.047-7.025.047-1.814 5.785-7 4.675-11.04 5.36-1.806.3-3.743-1.625-4.306-4.01-.6-2.547-1.4-5.044-2.064-7.577-1.388-5.3-3.335-10.246-7.866-13.776-1.348-1.051-2.366-2.422-.4-4.385l5.05 4.008a7.734 7.734 0 00-2.11-7.086c-1.769-1.937-3.614-3.809-5.294-5.818-1.144-1.363-2.67-2.8-2.963-4.4-.786-4.281-3.513-7.031-6.68-9.364-5.57-4.11-7.973-9.6-8.553-16.339-.2-2.294-1.539-4.6-2.746-6.674-2.134-3.677-4.722-7.09-6.836-10.778a135.842 135.842 0 00-11.133-16.136c-3.154-4.028-6.376-5.721-11.5-3.885a14.883 14.883 0 00.7 2.643c1.379 2.957 3.109 5.773 4.252 8.814 4.468 11.882 10.832 22.773 17.451 33.509a13.826 13.826 0 012.383 9.235c-.534 4.377.374 8.053 4.357 10.56 3.244 2.044 3.964 5.606 4.676 8.91 1.02 4.73 3.723 7.876 7.2 11.164 7.718 7.3 14.788 15.3 22.017 23.105a4.422 4.422 0 011.162 3.446c-.932 3.277.71 5.274 2.771 7.308 1.274 1.258 2.36 2.709 3.408 3.932 6.313-1.968 12.018-3.918 17.825-5.489a74.1 74.1 0 0110.092-1.664c3.5-.439 7.045-.166 9.9-3.138a2.331 2.331 0 013.918 2.1c-.567 5.8-.46 11.615-2.649 17.312-5.469 14.225-14.585 26.325-22.057 39.376-1.783 3.113-3.624 6.177-6.782 8.213-9.107 5.867-15.537 14.461-22.6 22.407-2.393 2.694-4.622 5.541-7.088 8.168-7.2 7.659-10.413 17.271-13.462 26.984.788 5.807 1.166 11.709 2.465 17.4 1.785 7.81 4.335 15.444 6.408 23.193a22.064 22.064 0 01.723 6.284c-.189 6.212-.747 12.415-.852 18.627a8.544 8.544 0 01-2.708 6.466 30.071 30.071 0 01-10.812 7.466 24.387 24.387 0 00-9.8 7.125 90.825 90.825 0 01-10.084 9.343c-3.125 2.584-3.6 5.455-2.477 9.187 1.266 4.219 2.69 8.564 2.838 12.894.129 3.782-1.3 7.652-2.317 11.408-.242.895-1.519 1.619-2.458 2.192-2.516 1.533-5.044 3.062-7.679 4.371-4.439 2.208-5.787 5.76-5.463 10.519a21.2 21.2 0 01-6.45 17.08c-4.79 4.884-8.732 10.589-13.341 15.664-4.835 5.327-9.865 10.509-15.16 15.373-1.476 1.354-4.178 1.4-6.339 1.97-1.867.488-4.106.363-5.587 1.377-3.9 2.664-7.975 2.536-12.172 1.576a12.43 12.43 0 00-6.675.4 101.62 101.62 0 01-13.706 3.554c-1.97.308-4.213-1.137-5.714-2.536-1.787-3.616-3.577-7.232-5.411-10.94.77-.766 2.151-1.5 2.34-2.471a8.3 8.3 0 00-.46-4.755c-3.819-8.323-7.809-16.569-11.806-24.81a86.346 86.346 0 00-4.615-8.676c-2.125-3.349-2.587-6.965-2.612-10.774-.022-3.439-.215-6.877-.254-10.314-.082-7.016-3.94-12.742-6.538-18.861-2.877-6.774-6.35-13.294-9.376-20.008a24.674 24.674 0 01-1.512-6.1c-.345-2.087-.423-4.217-.605-6.331-.538-6.23 1.512-11.956 3.663-17.6 1.515-3.975 3.739-7.683 5.163-11.683 2.389-6.7 3.622-13.532.024-20.31-1.422-2.68-2.366-5.319-.115-8.18.513-.653.322-2.214-.051-3.156-3.439-8.68-6.549-17.535-10.659-25.892-2.941-5.976-7.275-11.266-10.981-16.867-6.226-9.409-6.116-6.072-1.857-16.735 2.582-6.47 2.368-13.134 2.828-19.789a3.871 3.871 0 00-1.082-2.584 48.487 48.487 0 00-5.447-4.964 5.041 5.041 0 00-3.1-.807c-4.711.24-9.415.644-14.318 1.006-1.526-2.951-3.16-5.779-4.483-8.746-2.024-4.533-6.091-5.9-10.324-6.249-4.039-.335-8.164.326-12.243.62a5.239 5.239 0 00-1.783.724c-5.991 2.988-11.991 5.951-17.946 9a4.762 4.762 0 01-4.654.082 22.136 22.136 0 00-13.273-2.009c-3.378.433-6.88.4-10.106 1.338-3.249.944-6.222 2.834-9.6 4.445-2.75-1.906-5.583-3.825-8.368-5.814-6.792-4.845-13.534-9.76-20.349-14.57a10.564 10.564 0 01-4.8-7.1c-1.255-8.1-6.589-13.749-11.685-19.516a12.191 12.191 0 00-3.979-2.8c-1.763-.817-3.774-1.051-4.734-3.136-1.242-2.694-2.469-5.34-2.128-8.449.712-6.516.68-6.52-3.152-11.17.033-.322-.06-.8.117-.94a13.081 13.081 0 005.137-10.068 3.8 3.8 0 01.634-1.851c3.271-4.882 2.292-10.359 2.089-15.672-.063-1.7-1.053-3.361-1.765-5.477 2.118-1.97 2.105-4.381-.092-6.823a10.662 10.662 0 01-1.268-2.1c-1.531-2.83-1.687-5.5.558-8.153 2.446-2.891 4.428-6.015 4.685-10.029a8.446 8.446 0 013.8-6.542c1.594-1.125 3.037-2.463 4.693-3.823-.95-5.3 1.968-8.978 5.438-12.411a11.914 11.914 0 002.382-2.471c2.469-4.654 5.674-8.256 11.307-8.8 4.318-4.014 8.7-7.966 12.89-12.1a4.092 4.092 0 00.548-3.183c-1.17-6.091 1.274-11.229 4.178-16.21a9.774 9.774 0 012.939-2.512 96.2 96.2 0 018.106-5.559 16.381 16.381 0 007.665-9.789 31.179 31.179 0 012.364-4.662c-1.385-2.387-2.836-4.71-4.108-7.127-1.509-2.865-3.764-3.844-6.772-2.984-2.05.585-4.18.884-6.839 1.428.757-4.256.5-7.418-1.034-10.737a9.446 9.446 0 01.182-7.513c4.119-7.324 4.689-14.777 2.51-22.676a5.794 5.794 0 01.193-1.759c.962-.289 2.436-.269 2.985-.971 3.066-3.918 6.5-2.92 10.125-1.151a3.058 3.058 0 001.888.431c5.141-1.449 10.023.343 15.012.977a45.179 45.179 0 007.87.055c3.334-.162 5.576-2.409 6.714-5.444 2.709-7.207.513-13.774-3.415-19.423-2.036-2.93-6.261-4.5-9.728-6.224-2.58-1.287-2.725-.989-4.344-3.419 3.456-4.589 6.359-4.9 17.357-1.8 1.588-2.861-.992-5.208-1.043-7.874.316-.037.663-.193.846-.082 6.023 3.677 10.109 3.47 15.578-.919a3.611 3.611 0 001.308-1.98c.564-3.593 3.178-4.3 6.148-5.286a38.3 38.3 0 008.959-4.835c1.057-.71 1.613-2.385 2.054-3.733.605-1.849.883-3.8 1.32-5.8 4.838-2.089 9.655-4.03 15.083-3.8 3.354.144 6.114-1.01 7.523-4.184-1.235-2.53-2.606-4.923-3.6-7.462-2.315-5.925.012-11.266 5.851-13.655 1.586-.648 3.279-1.03 5.535-1.722l-.6 5.015c2.918 3.384 2.918 3.384.652 8.032 2.67-.657 5.186-1.1 7.577-1.913 2.867-.973 3.692-3.333 2.462-6.294a13.625 13.625 0 00-1.471-3.1c-2.68-3.5-5.625-6.83-5.18-12.82-3.9 2.475-6.858 4.057-9.481 6.08-5.578 4.305-8.623 4.628-14.638 1.016-1.124-.68-2.212-1.388-3.528-2.213zm98.712 149.238c-6.113-.078-8.49-1.683-8.714-6.337-.176-3.649-2.06-5.219-5.122-6.218-4.739-1.547-8.8-8.609-7.86-13.528.857-4.463-.037-6.745-3.908-9.048-4.2-2.5-8.735-4.515-12.721-7.318-4.494-3.158-9.612-5.586-12.643-10.677-2.225-3.735-5.147-7.055-7.755-10.554-5.364 3.823-6.364 6.885-3.183 11.412s6.817 8.771 10.281 13.115c.505.632 1.144 1.6 1.759 1.633 4.338.215 6.692 3.934 10.2 5.549 2.524 1.161 5.1 2.206 7.687 3.23 2.867 1.135 4.724 2.875 4.26 6.058l-7.262-3.864c-1.355 1.315-2.685 2.612-4.068 3.959 1.389 2 2.5 3.593 3.532 5.081a22.424 22.424 0 01-1.625 3.643c-1.244 1.818-2.514 4.734-4.117 4.985-4.7.735-5.412 3.386-5.048 7.234a5.785 5.785 0 01-.351 1.576 5.618 5.618 0 01-1.9-.029c-4.4-1.728-8.8-3.458-13.1-5.389-.679-.3-.9-1.634-1.593-3.015 4.076 0 7.355-.257 10.577.066 4.226.421 6.243-.7 9.193-5.385 1.964-3.123.287-5.342-1.545-7.427-3.7-4.207-7.8-7.89-13.364-9.625a17.307 17.307 0 01-5.143-2.781c-5.677-4.3-10.444-9.376-13.361-16.031a5.528 5.528 0 00-8.09-2.52c-2.8 1.943-5.771 3.673-8.373 5.849a7.685 7.685 0 01-9.081 1.073c-3.238-1.6-6.316-.936-9.514.066-2.268.71-3.394 2.044-2.853 4.348.885 3.76-.946 5.867-4.073 7.334a45.6 45.6 0 01-4.439 2.11 9.345 9.345 0 00-5.67 5.052 17.235 17.235 0 01-2.116 3.31c-2.4 2.986-4.552 6-2.505 10.279a5.743 5.743 0 00-4.843 4.642c-.183.757-.6 1.929-1.119 2.06-4.313 1.081-7.043 5.379-11.9 5.52a26.334 26.334 0 00-8.071 1.843c-5.025 1.841-6.245 4.16-5.4 9.69 2.434.361 4.975.78 7.527 1.106 2.733.347 5.483.558 8.215.915 2.438.318 4.62-.016 6.125-2.165 3.994-5.7 9.89-7.833 16.411-8.539 5.03-.546 10.1-.79 15.153-1 3.094-.131 6.142.154 8.832-2.06a8.007 8.007 0 014.157-1.2c3.9-.373 7.924-.092 11.71-.926 4.359-.958 8.3-1.219 11.859 1.839.355 1.638.208 3.768 1.188 4.991 3.343 4.162 1.948 7.921-.248 11.824-.732 1.305-1.334 2.684-1.759 3.55 2.655 2.118 4.954 3.462 6.589 5.375a8.915 8.915 0 007.757 3.249c2.234-.072 4.853-.088 6.661.967a44.414 44.414 0 0110.109 7.673 11.4 11.4 0 007.544 3.887c5.407.564 10.736 1.258 14.357 5.937 1.157-.64 1.847-1.065 2.571-1.414 2.368-1.141 3.185-2.567 1.426-5.011-1.718-2.389-.745-4.517.931-6.676 3.485-4.488 8.551-5.713 12.592-6.844 2.557 1.006 4.295 1.74 6.072 2.368 1.224.433 2.549.6 3.741 1.086 7.719 3.175 15.387 6.464 23.122 9.594 3.571 1.445 7.236 2.167 10.8-.205a2.653 2.653 0 011.374-.482c6.047.047 12.115-.14 18.134.318 3.825.291 7.765-.979 9.448-4.268a121.657 121.657 0 005.6-11.465c1.578-4.088 3.209-8.369 3.536-12.662.257-3.347-1.451-6.842-2.275-10.224-4.56.351-8.607 1.073-12.176 3.8-2.807 2.142-6.017 1.72-8.516-.573-2.7-2.473-5.767-2.715-9.043-2.746a36077.69 36077.69 0 01-3.327 4.755c-5.5-3.16-10.451-7.16-16.22-6.678-1.565-2.887-3.076-4.991-3.9-7.334a96.864 96.864 0 01-4.133-14.084c-.6-3.16-2.744-3.913-4.954-4.722-2.477-.909-3.951.948-5.223 2.719a33.972 33.972 0 00-1.741 3.058c-1.964-1.4-3.72-2.655-5.587-3.991-1.252 4.7-.583 7.209 2.819 9.7 2.335 1.707 4.225 3.524 4.472 6.788-2.643 2.54-7.523 3.365-6.788 8.799zm49.426-60.884l2.565-3.339-11.26-3.6c-2.124 3.64-5.6 6.187-7.993 9.992-1.974 3.136-4.166 5.9-4.818 9.633a1.9 1.9 0 01-.829 1.153c-2.38 1.412-2.475 3.515-2.231 5.97.124 1.24-.575 2.561-.936 3.979 4.761 5.075 11.287 6.015 18.057 7.435 3.086-4 8.178-3.887 12.625-5.3 5.9-1.878 11.763-2.385 17.078 1.81a5.743 5.743 0 001.309.671c7.385 3.207 15.458 2 23.107 3.536a2.349 2.349 0 001.716-.745c1.808-1.808 3.527-3.7 5.057-5.331a8.2 8.2 0 00-.493-1.519 6.087 6.087 0 00-1.229-1.519c-7.031-5.241-12.167-12.939-20.874-16.029a45.673 45.673 0 01-5.713-2.758c-1.974-1.028-2.132-2.231-.5-3.686 1.088-.975 3.226-1.861 3.222-2.779-.018-3.558 2.917-5.477 4.675-9.1-4.3 1.02-7.73 1.927-11.2 2.637-4.453.911-6.4 3.965-7.562 8.149l5.789 2.99a9.817 9.817 0 01-1.073.712c-3.172 1.422-7.3.708-9.559 4.34-.176.281-2.221-.088-2.871-.706-2.084-1.986-3.916-4.227-6.059-6.596zm-60.3-90.25c6.839-2.424 12.315-5.1 18.826-3.134 5.333 1.615 7.771.09 9.413-5.309a8.528 8.528 0 00-6.844-1.746c-6.706 1.283-13.367 2.809-20.09 3.989-2.836.5-5.843.694-8.363-1.336-2.557-2.058-4.474-4.383-3.263-8.012a2.294 2.294 0 00-.2-1.437c-1.543-3.723-.641-7.345.236-11.077a68.38 68.38 0 0017.577-12.6c-.85-1.662-1.445-3.039-3.68-2.69a51.109 51.109 0 01-6.778.443c-4.728.107-7.451 2.385-7.5 7.037a4.465 4.465 0 01-3.334 4.722c-1.689.609-3.421 1.108-5.066 1.814a11.333 11.333 0 00-3.734 2.118 64.441 64.441 0 00-6.015 7.141c-2.655 3.692-1.217 9.4 2.752 11.759 1.931 1.147 3.85 2.313 6.354 3.819a41.645 41.645 0 01-3.743 3.671c-1.43 1.079-3.1 1.833-4.6 2.838-3.327 2.243-4.153 4.7-3.072 8.75a6.425 6.425 0 01-5.241 7.648c-2.317.353-4.412.946-5.7 3.341l3.113 3.866c-4.178-3.113-8.9-2.4-12.364-2.967a9446.223 9446.223 0 01-6.9 9.212c4.562 1.986 6.534-4.139 10.677-3.3a9.172 9.172 0 01.574.784c.167.281.263.605.425.889 1.839 3.21 3.393 3.575 6.795 1.984 3.971-1.853 8.005-3.579 12.06-5.239a26.284 26.284 0 014.076-.979l2.908 4.357c4.767-.094 8-3.164 11.663-5.18 1.522-.839 1.478-2.473.536-3.889-1.966-2.957-1.232-5.978-.261-8.986 1.141-3.54 4.7-4.921 7.782-2.879a36.983 36.983 0 014.272 3.846c4.909-3.932 4.872-6.77-.008-10.179a38.453 38.453 0 01-3.283-3.089zm145.852 101.792c-2.124 4.794-.341 7.876 3.519 10.948 5.342 4.25 10.051 9.292 15.172 14.127l-3.7 2.557.751 5.635c-2.633 2.077-5.239 4.47-3.528 8.17 1.66 3.591 5.175 3.478 8.724 3.13 1.7 3.546 4.71 5.9 8.426 5.84 4.437-.07 8.857-1.283 13.058-1.964-.564-3.7-1.777-6.844-1.3-9.7.6-3.575-.523-5.658-3.205-7.435-1.09-.72-2.272-1.313-3.3-2.105-2.586-1.98-3.148-3.963-2.067-7.17 2.877.468 5.863 1.935 8.943-.053-1.28-3.9-3.14-6.967-6.811-8.742l-4.541 4.693-.885-.47v-6.788c-5.438-4.669-10.692-9.177-15.929-13.671 1.172-1.41 2.319-2.206 2.6-3.236.779-2.908 2.832-3.339 5.28-3.193a32.432 32.432 0 013.573.628l2.468-8.623-11.619-4.837a92.256 92.256 0 00-8.432 6.333c-1.34 1.242-2.332 2.424-4.31 2.746-3.95.64-5.738 4.131-7.974 6.869-1.08 1.322-.007 4.086 1.676 5.009a27.713 27.713 0 003.415 1.302zM69.188 142.519c-5.081-3.626-10.172-2.534-15.822-2.947l3.78-6.458-8.631.9c.462-6.029 2.957-10.367 7.829-13.4 6.448-4.014 13.025-7.638 20.961-7.453 5.2-2.844 10.858-2.922 16.6-3.271 3.659-.224 3.343-4.088 4.336-7.332-6.684 2.407-12.643.365-18.773-.181l1.215-6.064c7.877-2.181 15.9-4.4 24.2-6.7v3.324l9.452-.94-2.358-11.868c4.387-.9 8.422-1.473 12.3-2.577 9.762-2.774 19.387-6.046 29.2-8.629 8.365-2.2 16.905-3.737 25.379-5.524a3.019 3.019 0 011.884.218c6.058 3.23 12.75 4.026 19.372 4.962 8.41 1.188 16.84 2.707 25.292 2.947a64.707 64.707 0 0113.985 1.457 8.9 8.9 0 013.189 1.143c6.513 4.9 13.3 3.1 19.961.694 2.407-.87 4.332-1.408 6.932-.427a12.811 12.811 0 006.735.117c8.289-1.714 16.521-3.7 25.116-5.668l2.472 4.33 7.735-2.8 2.157 3.466c1.157-.193 2.424-.425 3.7-.612a21.691 21.691 0 019.669.648 129.149 129.149 0 0013.893 2.949 20.341 20.341 0 017.9 3.3l-7.195 3.848c3.992 1.26 7.581 1.714 11.17.8 5.869-1.5 11.7.2 17.677 0 2.795-6.286 9-5.828 14.361-6.91.925-.189 2.594.928 3.179 1.89 1.685 2.779 4.433 3.552 7.125 3.679 5.711.269 11.449.064 17.172-.072a49.507 49.507 0 005.625-.786l.667-5.145c6.054-4.613 12.779-4.929 19.713-2.553.355-1.02.7-1.5.64-1.921-.463-3.5 1.431-5.385 4.281-6.918a61.025 61.025 0 009.194-5.68 117.078 117.078 0 0010.814-9.91 8.425 8.425 0 015.953-2.936 133.293 133.293 0 0115.225.431c-4.73 3.3-8.972 7.418-15.26 7.39-4.166-.021-7.632 1.381-9.868 4.318L460.33 74.3c1.757.209 3.792.456 5.828.7 2.019 4.476 2.019 4.476-3.384 8.972.318 1.084.669 2.28.985 3.363a4.072 4.072 0 001.192.152c6.655-1.837 11.453-6.871 17.226-10.23 1.988-1.159 2.959-4.065 4.754-6.7l-11.43-2c-1.859-4.086-.48-6.407 2.8-9.189a47.633 47.633 0 0117-9.444c2.332-.722 4.644-1.225 7.29-.125-1.648 2.635-6.229 3.052-4.716 7.566a5.1 5.1 0 001.622-.731c4.75-4.974 11.35-5.444 17.424-7.156a3.4 3.4 0 012.744.361c2.149 1.972 4.609 1.3 7.015 1.2a23.659 23.659 0 002.409-.431c6-.88 11.47-.6 14.64 5.83.841 1.7 2.332 3.088 3.678 4.818 1.346 0 2.815.021 4.282-.006a4.109 4.109 0 014.062 2.116 5.173 5.173 0 003.427 2.313c3.716.25 5.918 2.409 8.323 5.754l-4.87 7.718c1.363 2.1 2.448 4.4 6.286 3.1 1.351-.456 3.673 1.159 5.221 2.284 2.626 1.908 4.992 4.18 7.668 6.47-1.976 2.12-5.767 1.629-6.218 5.108-.037.285-1.5.579-2.28.534a5.144 5.144 0 00-5.243 2.711c-1.3 2.077-4.581 1.58-6.688-.833-1.915-2.2-3.623-4.572-5.356-6.784-6.524 2.848-7 4.829-2.787 9.834 1.67 1.982 3.195 4.088 4.379 5.615-2.479 3.095-4.65 5.8-7.058 8.81-4.637-.8-7.521-6.232-13.168-7.23.213 4.773 6.266 6.384 5.143 11.931-6.587-2.021-12.94-3.891-19.22-5.98-.9-.3-1.449-1.644-2.138-2.524q-3.464-4.411-6.908-8.839c-1.5-1.929-3.162-1.855-5.2-.78-2.87 1.519-5.861 2.8-9.346 4.443l-3.08-4.032c2.555-4.268 6.532-4.812 11.03-4.112a33.064 33.064 0 006.315.618c5.218-.209 5.214-.31 6.38-5.526 2.851-1.371 5.813-2.729 8.717-4.209 5.2-2.651 5.184-2.682 3.148-8.882-3.415-.337-6.8-.341-9.076 2.955-2.763 4-6.358 3.6-10.283 2.424 1.446-4.946 1.457-4.857 6.215-5.362 3.14-.334 6.614-.088 8.8-3.565-1.258-1.059-2.407-1.966-3.491-2.949-2.889-2.619-5.7-3.821-10.074-2.9-5.017 1.051-10.42.257-15.655.289-.948.006-1.894.133-3.384.246l3.76 4.9c-1.361 1-2.744 1.89-3.967 2.965a4.426 4.426 0 00-1.656 2.331c-.637 6.187-5.679 7.64-10.212 8.927-3.436.973-7.147.823-9.152 4.5-2.824-1.447-4.745-4.1-8.123-2.7-.021 2.627 2.107 3.85 3.774 5.219 2.274 1.867 4.73 3.521 7.178 5.163 1.984 1.332 2.965 2.992 2.276 5.672-2.844.95-5.414 1.831-8.334-.938-2.709-2.565-4.667-2.138-7.776.376-2.331 1.886-4.611 3.753-7.244 3.1l-3.983-3.7c3.9-3.62 8.19-7.593 12.475-11.566l-.581-.774a16.271 16.271 0 00-2.84 1.42c-5.516 4.234-11.555 7.817-18.151 9.614-6.1 1.662-11.075 4.935-16.391 7.913a213.543 213.543 0 01-20.583 10.427c-6.94 2.951-11.693 8.18-17.152 13.87l5.412 1.783-1.069 9.639c1.187.314 2.005.811 2.681.661 5.017-1.112 9.323 1.09 12.7 3.979 2.84 2.43 4.975 5.35 9.158 5.091a.577.577 0 01.438.2c3.252 4.976 8.594 3.606 13.232 4.369.809.133 1.615.273 2.717.458l-5.159 11.888 3.911 1.042-.394 2.489-4.8-.437a5982.89 5982.89 0 004.4 10.868 95.075 95.075 0 008.857-5.167c1.151-.833 1.8-2.655 2.216-4.156 1.313-4.726 2.407-9.512 3.55-14.127.386-.328.616-.7.872-.72 7.87-.585 13.885-5.344 20.341-9.079a5.858 5.858 0 002.23-2.405c1.19-2.5 2.141-5.11 3.234-7.8l-4.182-4.857c2.653-2.674 5.227-5.192 7.706-7.8a11.952 11.952 0 002.264-3.134c2.233-4.882 4.334-9.826 6.464-14.7 7.266-.9 14.192 2.655 21.646-.657 1.683 1.592 4.16 3.329 5.8 5.654a10.285 10.285 0 006.68 4.455 9.422 9.422 0 012.125 1.059c-6.879 8.681-6.69 10.6 1.539 16 8.16-2.6 14.778-7.929 21.979-13.821.842 4.689 1.552 8.609 2.245 12.532a28.913 28.913 0 00.659 3.862 10.177 10.177 0 01-.663 8.073 19.9 19.9 0 00-.913 2.551 61.247 61.247 0 005.44 5.859 33.483 33.483 0 006.555 4.156c1.757.88 3.033 1.828 3.185 3.915a4.957 4.957 0 00.57 1.874c2.86 5.528 3.415 10.649-1.9 15.276-.819.714-.436 2.805-.608 4.258l.9.456-3.833 2.744c1.6 2.775 2.943 5.1 4.548 7.874h7.718c-2.366 4.4-1.617 8.426.54 12.684-2.462 1.849-4.767 3.577-7.43 5.576l-2.8-5.114-4.222 1.673c-.48-2.653-2.385-2.928-4.668-2.881a131.621 131.621 0 01-15.886-.5c6.216-9.411 14.535-16.678 22.707-25.627-1.933.267-2.808.2-3.5.519a44.7 44.7 0 00-5.66 2.947c-6.876 4.441-14.563 5.553-22.506 5.615-6.895.053-13.794.144-20.683-.051-2.834-.08-5.151.507-7 2.651a9.7 9.7 0 01-7.172 3.721 5.982 5.982 0 00-3.087 1.32 43.422 43.422 0 00-7.683 7.228 30.031 30.031 0 003.225-1.014c4.492-1.954 9.013-3.854 13.413-6 3.9-1.9 7.489-1.609 11.638 1.106-2.6 4.47-5.2 8.933-8.145 14a60.412 60.412 0 003.689 5.6 5.235 5.235 0 002.918 1.281c1.268.265 2.694-.057 3.889.355 3.172 1.094 5.215-.166 7.181-2.555 1.717-2.089 3.329-4.562 6.794-4.855l1.238 6.3a23.35 23.35 0 01-4.045 1.3 6.407 6.407 0 00-4.747 2.955 6.857 6.857 0 01-3.554 2.3c-5.939 1.736-12.036 2.857-17.338 6.485-1.906 1.305-4.6 1.455-7.205 2.21l-2.357-4.515 8.822-5.949c-5.171.31-8.87 1.746-12.553 3.084-4.621 1.679-9.042 4-13.753 5.3-4.663 1.291-7.639 4.135-10 8.009-.768 1.258-1.488 2.543-2.4 4.1l1.908 3.169c-.588 1.919-2.031 2.481-3.942 2.963-5.695 1.445-11.357 3.058-16.932 4.9a12.367 12.367 0 00-4.665 3.242c-2.38 2.467-4.479 5.2-6.677 7.81-4.219-.252-4.211-.248-6.163 3.757-1.338 2.752-2.064 6.126-6.029 6-.243.486-.556.806-.505 1.055 2.141 10.745-5.22 16.066-12.4 21.246-5.836 4.2-12.071 7.851-18.076 11.829s-10.226 9.766-14.082 15.578c-1.512 2.282-.765 6.282-.523 9.458a113.776 113.776 0 001.775 11.6 17.6 17.6 0 01-1.693 11.35 55.451 55.451 0 00-2.005 5.295c-1-.269-2.083-.254-2.729-.784-5.189-4.24-6.889-10.154-7.467-16.487-.1-1.034.632-2.169 1.067-3.222 1.322-3.2 1.022-6.009-1.65-8.473-1.441-1.33-2.655-2.9-4.051-4.449-2.6 1.006-4.839 1.869-7.7 2.971l-4.892-5.888c-4.95 1.346-9.518 2.387-14.293 1.02-2.362-.675-3.955.944-5.408 2.627-2.192 2.541-4.627 4.73-8.356 4.289a9.376 9.376 0 01-3.091-.657c-5.646-2.867-11.182-4.193-16.934-.113-3.873 2.746-8 5.139-11.968 7.745s-7.907 5.286-12.208 8.17c.993 11.354-4.383 21.414-7.626 31.987a15.5 15.5 0 00-.4 7.6 36.625 36.625 0 008.982 18.243c2.768 3.1 5.922 5.9 11.071 3.92 4.853-1.872 10.047-2.9 15.134-4.115a4.817 4.817 0 003.994-3.766c.454-1.738 1.375-3.38 1.648-5.132.917-5.9 5.362-7.488 10.18-8 3.809-.4 7.72.178 11.972.337l-14.915 37.979c7.345.337 14.247 1.841 21.269.361 2.358-.5 9.487 3.421 10.314 5.6a6.244 6.244 0 01.032 3.345c-1.013 4.634-2.366 9.2-3.185 13.866-.7 4-1.851 8.334-.944 12.069s3.841 7.133 6.433 10.22c1.615 1.923 4.246 2.994 6.8 4.7 4.078-2.873 8.8-3.69 13.717-4.188a5.75 5.75 0 014.87 1.371c2.571 2.239 5.167 4.449 8.13 7 2.64-2.694 5.171-5.206 7.6-7.821a3.266 3.266 0 00.8-2.2c-.254-3.505 2.253-5.662 3.9-8.209a3.793 3.793 0 012.325-1.473 33.089 33.089 0 0016.6-7.839c2.4-2.073 3.648-1.7 5.455 1.125-3.14 1.428-3.873 4-3.817 7.369.035 2.064-1.476 4.154-2.485 6.725.773.985 1.833 2.329 2.9 3.684.477-.392.917-.616.891-.751-1.016-5.329 1.385-8.865 5.606-11.837 1.738-1.225 2.783-3.437 4.207-5.284.4.285.985.472 1.144.839 2.6 6.046 8.153 7.074 13.673 7.923 2.894.445 5.982-.156 8.8.507s5.375 2.3 8.155 3.569c3.643-4.069 8.622-3.694 13.635-4.307-.86 2.534-.495 4.41 2.032 5.338a13.535 13.535 0 012.711 1.147c2.625 1.7 5.313 3.4 5.114 6.764 3.922 2.249 7.712 4.133 11.143 6.532 1.328.928 2.023 2.947 2.678 4.6a8.123 8.123 0 004.246 4.5c3.37 1.681 6.477 3.977 9.963 5.3a21.839 21.839 0 009.048 1.432c6.53-.48 11.4 1.888 16.309 6.128 4.335 3.741 7.486 7.375 7.607 13.284a29.439 29.439 0 001.182 5.783 2564.66 2564.66 0 005.387 4.3c-.739 8.724-3.06 5.691 7.843 12.961.15 1.839.318 3.891.536 6.536l6.023-4.773c3.513 1.576 7.207 3.232 10.9 4.892.45.2.885.431 1.334.632 6.288 2.83 6.288 2.83 5.762 9.918 3.142-1.958 6.146-1.328 9.352-.5 5.713 1.478 11.517 2.1 17.342.045.923-.326 2.535.293 3.409 1 5.6 4.515 11.226 9.029 16.557 13.858 2.136 1.935 4.192 3.56 7.062 3.991 2.9.435 4.127 2.181 5.27 4.925 2.795 6.719 4.076 13.017-1.271 19.052-3.634 11.1-10.479 20.335-17.259 29.586a12.184 12.184 0 00-2.491 8.67c.9 11.872-.829 23.532-3.454 35.083-.435 1.906-.917 3.809-1.215 5.74-.923 5.974-3.94 11.018-7.722 15.42a16.486 16.486 0 01-8.11 5.147c-10.77 2.52-18.982 9.438-27.8 15.3a6.81 6.81 0 00-3.209 7.191c.228 1.12.117 2.315.394 3.417 2.288 9.066-1.488 16.624-5.791 24.119-1.433 2.491-3.866 1.141-6.068 2.1-.351.948-.837 2.126-1.221 3.337-1.383 4.357-2.722 8.728-4.1 13.089-2 6.335-6.07 11.119-11.258 15.046-6.265-.548-12.372-1.455-17.026-6.747l-3.084 2.789c4.194.088 4.822 3 5.565 5.545.688 2.35 1.418 4.24 4.126 4.921a3.6 3.6 0 012.135 2.389 20.128 20.128 0 01-3.2 15.457 2.125 2.125 0 01-1.2.79c-4.75 1.034-9.2 3.45-14.33 2.754-5.309-.72-6.74 1.24-5.693 6.694.534 2.781.267 4.792-1.426 6.663-1.958 2.165-4.708 2-7.3 1.74a32.73 32.73 0 01-4.718-1.168c-1.178 6.639 2.229 10.612 10.226 11.246-1.012 1.391-1.7 2.51-2.553 3.48-2.157 2.448-3.423 5.011-2.58 8.477.532 2.181.573 4.381-1.982 5.99-3.451 2.173-3.811 8.588-.809 11.447 2.709 2.575 5.629 4.931 8.845 7.722-2.526 4.6-7.6 8.978-4.373 15.467l-3.647 3.2c.747 7.8 7.088 11.767 11.264 17.248 4.782 6.273 12.781 5.292 18.463 9.257-2.411 4.49-7.888 7.209-12.362 6.115-6.838-1.67-13.69-3.3-20.488-5.114a29.838 29.838 0 01-12.21-7.141c-11.281-10.246-20.086-22.436-27.724-35.726l3.406-6.618c-2.779-1.319-5.342-2.539-8.481-4.03.585-3.125 1.233-6.6 1.97-10.525-.679-.716-1.654-1.744-2.908-3.07 1.074-1.192 1.847-2.584 3.025-3.189.932-.478 2.36.01 4.125.094-.953-4.9-1.878-9.68-2.816-14.459-.367-1.874-1.6-2.264-3.694-1.87.634 2.335 1.248 4.582 1.95 7.162l-3.653.495c-2.4-6.94-4.9-13.723-4.7-21a23.354 23.354 0 00-3.942-13.437 10.419 10.419 0 01-1.297-7.867c.967-5.953 1.042-12.05 1.49-18.085.206-2.768.5-5.533.612-8.3.185-4.427.207-8.841-1.231-13.136a53.8 53.8 0 01-2.762-17.361c.008-11.935-.6-23.87-.885-35.808-.285-11.843-2.708-23.378-5.083-34.907a7.882 7.882 0 00-3.091-4.076q-12.266-9.056-24.757-17.808a22.223 22.223 0 01-7.977-9.062c-3-6.54-6.378-12.914-9.625-19.344a19.606 19.606 0 00-1.98-3.388c-6.762-8.553-11.344-18.365-16.314-27.96a8.9 8.9 0 00-2.961-3.714c-3.037-1.705-4.254-4.363-5.05-7.462a22.269 22.269 0 00-1.483-4.671c-1.779-3.46-.659-6.255 1.629-8.9 1.6-1.849 3.213-3.692 4.765-5.471-.257-.484-.333-.841-.552-1.008-6.089-4.568-6.2-9.446-2.754-15.449a32.573 32.573 0 002.651-7.332c.622-2.183 1.51-3.952 3.913-4.5 2.7-.622 3.793-2.549 3.6-5.067-.184-2.391 1.127-3.552 2.831-4.712 4.938-3.363 7.642-7.792 7.146-14.051a106.56 106.56 0 01-.025-12.307 11.732 11.732 0 00-2.185-7.359c-1.443-2.114-2.765-4.143-2.84-7.09-.1-3.8-5.707-5.582-8.687-3.23-2.791 2.2-3.7 4.8-2 8.19l-4.041 2.4c-4.63-2.608-7.3-9.362-14.146-6.337l-16.831-15.783c1.723-3.92-.975-6.951-3.52-10.287-1.913-2.506-3.056-5.6-4.851-9.017-7.533-.24-14.67-5.175-22.912-6.2-1.42-.174-2.885-1.459-3.971-2.579-2.273-2.344-4.208-5.02-6.482-7.363a33 33 0 00-4.607-3.536 7.885 7.885 0 00-8.7-.628c-5.731 2.809-11.2 1.079-16.507-1.375-4.164-1.923-8.25-4.016-12.335-6.1a19.566 19.566 0 01-3.71-2.364c-2.075-1.748-3.568-4.281-6.976-3.874-.843.1-1.859-1.2-2.787-1.863-3.46-2.493-6.957-4.935-10.361-7.5-4.309-3.251-4.956-6.657-2.325-11.422 2.3-4.154 1.552-10.4-1.6-14.1-4.783-5.611-9.477-11.295-14.3-16.865-1.6-1.851-2.586-3.643-1.609-6.138a6.363 6.363 0 00-1.44-7.168c-1.11-1.188-1.818-2.746-2.913-3.954-4.859-5.368-6.673-11.82-7.271-18.867-.6-7.078-.766-7.063-8.58-7.948-.575 3.121-1.207 6.275-1.7 9.45a4.753 4.753 0 00.388 2.3c3.165 8.221 6.974 16.255 9.378 24.689a110.442 110.442 0 008.492 21.334c-1.285 1.127-2.563 2.245-4.131 3.618-2.3-5.7-5.348-10.64-10.56-14.094.211-1.022.369-1.958.6-2.877 1.1-4.379.4-7.64-3.493-9.46-4.149-1.941-5.549-5.746-8.389-9.036l4.386-3.8c.039-.423.2-.819.074-1.032-5.071-8.194-5-17.456-5.352-26.573-.2-5.013-2.126-8.759-6.329-11.451-2.748-1.757-6.29-3.117-7.843-5.656s-1.074-6.321-1.488-9.557c-.583-4.539-1.282-9.066-1.717-13.62-.3-3.2-1.344-6.44.343-9.639a3.671 3.671 0 00.082-2.877c-1.648-3.433.2-5.572 2.508-7.613a16.981 16.981 0 005.785-10.507 11.579 11.579 0 013.474-6.869c1.18-1.129 2.126-2.5 3.275-3.659 7.008-7.094 12.405-15.137 15.325-24.792.692-2.288 2.29-4.3 3.63-6.735-1.344-2.779-3.916-4.857-6.347-6.938-2.9-2.487-3.556-5.266-2.191-8.98 2.23.343 4.4.675 6.9 1.057.213-9.51-2.327-18.832 1.821-28.436l-9.59.495c.3-5.617.476-10.975.895-16.314.281-3.587.64-6.879-1.595-10.294-2.206-3.368-4.859-5.081-8.67-5.354a43.332 43.332 0 01-17.381-4.887 7.64 7.64 0 00-7.85.025c-8.348 4.545-17.574 5.939-27.225 6.754l10.644-7.7-.236-.521-23.185 6.6 2.464 2.9a13.264 13.264 0 01-7.248 5.459c-5.959 1.691-11.705 3.954-18.089 4.332-3.561.209-7.3 2.03-10.431 3.973a83.176 83.176 0 01-20.7 8.826c-13.5 3.981-27.107 7.447-41.366 8.523 7.505-2.635 15.037-5.194 22.506-7.923 7.848-2.869 15.654-5.853 23.444-8.871 7.623-2.96 15.208-6.019 23.236-9.202zm487.726 571.746l-2.918 6.694 3.591-1.03zm-.359-6.587l1.418 5.015c2.187-2.526-.023-3.677-1.419-5.015zm972.263 80.228c5.25-.956 6.36-4.691 7.7-7.868 2.083-4.95 4.205-10.031 2.247-15.658a4.209 4.209 0 01.01-2.91c2.03-4.154 1.513-8.2-.043-12.317a6.88 6.88 0 01-.168-2.442c.07-4.823-.724-9.421-3.975-13.809l5.685-3.7a3.872 3.872 0 00-.03-1.595c-1.535-3.694-1.8-6.977 1.161-10.392 1.139-1.315.985-4.008.917-6.056-.1-3.045.573-5.487 3.357-7.022l1.783.969c3.743-2.664 7.156-5.18 10.672-7.546a10.4 10.4 0 014-1.785c9.341-1.432 18.082-4.919 26.386-9.013 5.709-2.813 10.923-7.328 11.9-14.56.468-3.464 2.5-5.469 5.649-7.022.586 1.26 1.129 2.417 1.685 3.612.23-.107.6-.16.669-.332.925-2.356 2.178-4.234 4.806-5.167 1.217-.431 2.194-1.812 3.043-2.939 1.17-1.555 2.118-3.279 3.263-5.089l5.038.925c.5-1.925.925-3.632 1.383-5.329 1.241-4.628 5.161-6.278 8.9-3.329 2.23 1.761 3.786 4.381 6.084 7.143l8.611-2.216a25.61 25.61 0 018.213-15.313c1.078-.981 2.908-1.207 4.437-1.607 2.013-.527 4.071-.884 6.107-1.313-.076-3.134-2.748-5.51-.645-8.939 1.213.8 2.385 1.494 3.473 2.307 1.3.971 2.454 2.155 3.8 3.045 5.089 3.353 10.323 5.625 16.21 1.679a8.65 8.65 0 012.192-.759c3.9 4.519 3.583 4.223-.181 8.309-3.146 3.415-5.419 7.632-8.3 11.812 1.784 2.021 3.286 4.2 5.245 5.838a53.21 53.21 0 018.788 9.124c2.828 3.8 7.422 5.645 12.12 6.752 2.175.511 2.715-1.157 3.685-2.469 6.462-8.73 8.767-18.814 9.933-29.352.624-5.633 1.451-11.3 5.606-16.764 3.858 8.217 5.02 16.425 5.582 25.069h6.146a25.97 25.97 0 013.228 11.26 72.207 72.207 0 00.7 8.793c1.147 5.81 2.963 11.336 7.753 15.42 1.722 1.467 2.943 3.507 4.509 5.18a7.624 7.624 0 012.173 6.193c-.156 2.37.572 4.8.942 7.425 4.012.117 5.662 2.5 6.249 5.877.909 5.219 4.215 9.181 7.094 13.331a8.106 8.106 0 011.322 7.7c-2.192 7.2-3.357 14.753-6.034 21.742-2.436 6.362-6.29 12.186-9.573 18.215a25.909 25.909 0 01-9.844 10.039 17.292 17.292 0 00-4.254 3.977q-10.17 12.31-20.179 24.751c-2.027 2.53-4.09 4.172-7.689 4.256a16.318 16.318 0 00-11.869 4.96c-2.233 2.329-5.167 3.983-8.182 6.234l-5.292-7.529a25.943 25.943 0 00-2.674 1.993 8.047 8.047 0 01-8.541 1.931 36.09 36.09 0 00-7.125-1.814 7.04 7.04 0 01-6.273-4.724c-.7-1.658-1.562-3.257-2.163-4.95-.306-.854-.63-2.212-.2-2.731 2.483-3.025.825-5.863-.047-8.773-3.232.882-3.232.882-8.765 7.176l-4.272-3.329c3.88-1.8 7.069-3.261 10.238-4.761 2.848-1.348 3.207-3.7 2.646-7.263l-7.328 4.818-.872-.985c1.664-1.773 3.09-3.9 5.058-5.227a8.768 8.768 0 003.967-6.639c-5.752 3.123-10.993 6.3-14.443 11.728-2.924-.359-4.184-1.453-3.676-4.511.776-4.636-.609-8.43-5.284-10.449a6.734 6.734 0 01-1.633-1.075c-8.18-6.924-17.5-7.047-27.263-4.623-4.75 1.178-9.536 2.21-14.272 3.443-6.83 1.779-13.5 4-18.584 9.243a6.473 6.473 0 01-5.232 2.036c-4.417-.1-8.839.066-13.253-.084a12.572 12.572 0 00-6.9 2.159c-2.978 1.72-6.066 3.244-9.091 4.88-5.424 2.928-10.622 1.363-15.412-1.334-1.397-.787-1.72-3.499-2.804-5.931zM798.206 10.544l24.952-2.653.324.839c-5.37 2.512-10.622 5.34-16.146 7.447-5.551 2.118-11.375 3.519-17.8 5.453 1.964 4.045 3.564 7.345 5.3 10.917l-6.932 2.873c.921 2.994-3.208 6.534 2.318 9.087-2.138 1.3-3.854 2.43-5.653 3.407-2.015 1.1-4.239 1.851-6.136 3.111-3.96 2.631-7.843 5.274-6.548 11.248.495 2.274-.314 4.831-.509 7.033-.655.351-.962.669-1.226.636-9.359-1.2-17.572 3.16-26.187 5.473-5.678 1.523-11.287 3.386-16.788 5.463a34.523 34.523 0 00-9.526 4.95c-7.153 5.781-15.508 8.161-24.26 9.762-2.407.441-4.783 1.094-7.2 1.445-6.056.876-10.763 3.53-13.441 9.323a10.561 10.561 0 01-2.859 3.306c-6.43 5.461-11.625 12.007-16.4 18.871-1.747 2.512-3.657 3.374-6.731 3.827-4.985.735-8.822-.638-12.84-3.283-2.192-1.445-5.188-1.672-8.4-2.619a59.531 59.531 0 01-4.363-13.29 92.913 92.913 0 01-.719-27.371c.2-1.9 1.823-3.694 2.91-5.459 2.055-3.333 4.786-5.814 8.89-6.156 2.447-.2 3.405-1.551 3.458-4.2l-10.075 1.37c.347-1.989.609-3.5.9-5.175l11.03-2.432a15.251 15.251 0 00-11.125-3.505c1.245-1.876 2.132-3.072 2.867-4.359a16.376 16.376 0 002.1-4.305c1.488-6.756.7-7.888-5.364-11.285-5.912-3.308-12.434-3.638-18.857-4.714-5.947-1-11.875-2.216-17.7-3.77-2.036-.544-3.729-2.376-5.387-3.491.146-3.437 1.859-4.494 4.443-4.808 6.971-.848 13.932-1.769 20.9-2.66 2.594-.33 5.212-.532 7.769-1.047a4.782 4.782 0 003.027-1.724c.86-1.533-.125-2.762-1.681-3.474-.25-.115-.386-.476-.779-.991 3.421-2.259 7.437-2.015 11.106-2.512 11.98-1.627 24.033-2.713 36.027-4.232 9.961-1.258 19.93-1.178 29.924-.965a7.846 7.846 0 004.207-.852c4.673-3.021 9.867-3.123 15.123-3.257q16.7-.428 33.4-1c2.282-.076 4.55-.445 6.828-.624 9.6-.751 18.9.971 28.131 3.357 3.484.9 7.008 1.683 10.546 2.354 2.603.501 4.713 1.422 5.152 4.661zm906.288 595.091l5.73-5.477c-.669-2.965-1.065-6.567-2.338-9.828a10.884 10.884 0 00-6.947-6.474c-5.585-1.855-11.079-3.979-16.64-5.914a20.441 20.441 0 00-3.355-.544c-1.414-.236-3.475 0-4.106-.837a14.983 14.983 0 01-3.062-6.55c-.669-4.79-1.553-6.433-6.093-7.708-3.343-.936-5.052-3.232-6.277-6.721 5.071-1.116 9.442-4.133 14.857-2.067 1.683.642 3.815.1 5.9.1 0 2.974-.669 5.9.191 8.284.817 2.257 3.682 3.706 4.831 5.931 1.473 2.848 3.312 4.234 6.741 3.993 2-2.4 4.2-4.814 6.142-7.423 3.257-4.377 6.588-5.36 11.861-4 13.333 3.437 25.178 10.053 36.976 16.817 2.535 1.451 4.422 3.191 4.668 6.4.17 2.231 1.258 4.344 3.9 4.225 5.713-.257 7.87 3.659 10.248 8.332l-5.98 1.584c.8 2.836 1.617 5.416 3.6 7.689 3.425 3.922 6.319 8.239 11.131 10.87 1.781.973 2.713 3.5 3.517 6.206-1.794-.3-3.6-.517-5.378-.9-7.788-1.683-14.222-5.048-18.375-12.469-1.644-2.937-5.207-4.8-8-7.24a33.477 33.477 0 00-9.067 6.948c-1.469 1.508-2.883 4.047-4.517 4.215-3.286.337-6.745-.445-10.053-1.139a17.244 17.244 0 01-4.851-2.339c-4-2.344-8-4.424-12.854-2.7-.534.189-1.248-.127-1.878-.209zm-173.595-67.847c2.947.447 5.645.86 8.643 1.315.729-1.666 1.492-3.084 1.98-4.591a10.554 10.554 0 017.045-6.981 11.864 11.864 0 006.521-4.753c3.122-4.367 7.249-7.414 11.738-10.226a19.439 19.439 0 005.285-5.555 77.939 77.939 0 004.3-8.087 67.029 67.029 0 0114.145 13.937c-1.351 2.3-2.742 4.652-4.109 7.016-1.292 2.233-2.727 4.406-3.8 6.743-1.634 3.571-1.349 6.924 1.553 9.936 1.893 1.966 3.563 4.174 3.918 6.879-.314.353-.421.577-.529.579-5.33.1-6.819 3.446-6.768 8.038a9.682 9.682 0 01-5.079 8.931 5.456 5.456 0 00-2.949 5.674 23.111 23.111 0 010 3.93c-.17 1.851.156 4.373-.9 5.387-2.1 2.011-4.954 2.594-8.188 2.192-5.092-.63-9.494-3.187-14.379-4.33-2.33-.546-4.466-.884-6.678.1-2.791 1.237-5 .187-7.185-1.576a4.1 4.1 0 01-1.567-4.314c.25-1.434.349-2.9.5-4.351a7.543 7.543 0 00-2.5-6.542c-4.386-4.394-4.872-9.59-2.286-15.178a34.717 34.717 0 001.289-4.173z"/><path d="M637.134 5.427c-1.859.328-3.739.566-5.574 1-4.137.983-8.225 2.2-12.385 3.064-3.347.7-6.772 1.006-10.156 1.519a65.491 65.491 0 00-6.744 1.141c-5.362 1.4-10.652 3.074-16.023 4.431a64.641 64.641 0 00-16.791 6.686c-5.785 3.345-12.143 5.711-18.3 8.387-3.612 1.57-3.655 1.465-7.359-.811-1.155 2.409-2.92 3.6-5.781 2.762-7.615-2.225-15.311-.008-22.973-.15-3.353-.064-6.116 1.927-8.537 5.231 3.948 1.521 6.776-1.728 10.051-1.443 3.587.312 7.232.06 10.8.484 3.363.4 6.657 1.365 10.261 2.14-1.035 2.682-3.138 4.09-5.358 3.718-7.144-1.192-13.9 1.607-20.889 1.553a86.27 86.27 0 01-11.2-.4c-3.681-.513-7.263-1.746-11.084-2.711l1.525-3.1a17.573 17.573 0 00-2.416-1.843c-1.535-.8-2.791-.6-3.54 1.242a15.693 15.693 0 01-1.713 2.906c-2.147 3.1-4.334 4.227-8.558 2.692-4.145-1.506-9.027-.915-13.564-1.441-2.532-.293-5.018-.983-8.094-1.609.94-1.746 1.517-2.838 2.112-3.922 3.058-5.561 3.06-5.561 9.512-4.318 3.962.763 4.051.759 4.248 4.761.1 2.144 1.012 2.816 3.084 2.729 6.183-.261 6.175-.205 6.852-6.316.107-.952.365-1.888.568-2.91 6.364-.989 11.9-.119 15.888 4.96 6.327-1.6 12.375-2.967 18.3-4.74 2.071-.62 3.835-2.259 5.822-3.482-1.909-2.311-3.6-1.4-5.27-.8-5.9 2.13-11.246-1.952-10.679-8.19.129-1.424.5-2.828.843-4.708l3.488 2.916a81.656 81.656 0 007.942-4.857 10.713 10.713 0 016.733-2.083c8.147-.308 16.279-1.045 24.416-1.623a14.121 14.121 0 011.946-.22c8.135.566 15.9-1.537 23.809-2.93a108.436 108.436 0 0118.073-1.3c14.437-.084 28.877.152 43.317.271 1.11.008 2.22.121 3.331.185zm519.895 629.718c2.852 3.829 4.459 7.476 4.377 11.761-.043 2.294.059 4.593-.068 6.881-.285 5.116-.365 5.165-5.4 7.129a21.017 21.017 0 01-3.347 15.243 7.308 7.308 0 00-.979 2.762c-2.3 14.217-7.523 27.661-11 41.568-1.114 4.465-4.472 7.135-8.685 8.652-3.091 1.112-5.859 3.117-9.532.306-4.478-3.427-8.383-6.637-7.476-13a30.208 30.208 0 00-.031-5.364c-.146-3.895.579-7.638 3.234-10.53 4.831-5.262 5.021-11.48 4.207-17.95a25.827 25.827 0 00-1.564-6.159 7.294 7.294 0 01.673-6.534c3.713-6.893 3.666-7 11.019-9.746a24.624 24.624 0 0012.74-10.185c3.316-5.236 6.721-10.451 11.832-14.834zM344.932 73.75c1.958-6.45 7.614-10.661 9.12-17.54-3.669.041-6.111 2.37-8.475 4.377a10.4 10.4 0 01-6.07 2.7c-2.555.25-5.038 1.2-7.591 1.527-2.954.376-5.6-.043-6.249-3.8-.139-.817-1.057-1.5-1.822-2.516 5.083-1.833 9.832-3.606 14.624-5.247 2.59-.887 4.724-1.9 5.358-5.044.224-1.108 1.824-2.272 3.056-2.762a15.217 15.217 0 015.268-.9c5.576-.107 11.162.119 16.729-.1a6.279 6.279 0 016.327 3.669 19.688 19.688 0 002.165 3.833 6.484 6.484 0 003.183 1.8c1.99.48 4.073.573 6.111.88.638.1 1.313.644 1.863.519 4.607-1.057 7.392 1.424 9.77 5.272 2.232-2.436 3.992-5.056 6.395-6.778 2.271-1.627 5.223-2.313 8.317-3.6.7 5.457 1.272 10.232-3.013 14.147l4.554 7.8c-2.779 1.908-5.141 4-7.889 5.237a7.817 7.817 0 01-5.6-.17c-8.133-3.4-16.374-2.487-24.552-.759-3.625.768-7.443-.638-10.911 1.465a60.108 60.108 0 01-7.1 3.347c-3.219 1.412-3.766 1.3-4.756-2.181-.573-2.013-2.1-2.366-3.5-3.045-1.606-.789-3.324-1.349-5.312-2.131zM1492.65 553.482c5.477 4.082 11.4 7.6 13.22 14.574h7.2c-1.41 2.091-2.444 3.462-3.3 4.938-1.658 2.84-2.928 5.615-1.563 9.179 1.253 3.281-1.611 5.3-3.421 7.523-1.613 1.984-3.409 1.2-5.336.529a15.38 15.38 0 01-6.9-4.365 41.216 41.216 0 00-7.379-6.438c-5.463-3.8-7.022-9.579-8.547-15.479-.771-2.984-1.35-6.107-2.69-8.837-3.23-6.571-6.776-12.992-10.4-19.358-.634-1.114-2.173-1.835-3.436-2.444-3.525-1.7-6.191-3.874-7.289-8-1.246-4.685-5.544-6.624-9.439-8.73-.971-.523-2.04-.864-3.69-1.549l3.1-4.024c1.474.587 2.7.979 3.831 1.545 3.662 1.83 7.179 4 10.957 5.535a28.146 28.146 0 0114.258 11.937c1.968 3.259 5.84 5.773 9.387 7.585 5.707 2.918 9.725 7.652 14.831 11.615zm346.331 282.485c.7.328 1.295.577 1.859.874s1.106.64 1.826 1.061l5.023-3.287c.9 1.541 1.728 2.974 2.765 4.759 3.273-2.859 6.77-4.786 7.9-9.079l-5.348-4.3a30.031 30.031 0 014.2-1.861c3.507-.909 5.052-3.384 6.686-6.46 3.077-5.8 2.658-12.04 3.436-18.145.246-1.941.306-3.905.454-5.888 5.789 1.545 6.206 2.136 5.453 7.679-.285 2.1-.624 4.182-.973 6.507 1.7.815 3.412 1.24 3.5 3.852.061 1.742 2.017 3.417 3.222 5.272 1.67-.757 2.846-1.258 3.992-1.818 1.13-.554 2.232-1.166 3.607-1.89-2.27 7.562-6.942 11.547-14.415 12.4-.48 1.215-.937 2.592-1.562 3.889-.478.993-.946 2.237-1.8 2.766a146.772 146.772 0 01-13.538 7.892c-3.8 1.837-4 1.488-9.477.345-3.7 4.613-8.948 7.54-14.185 10.6-2.015 1.176-3.068 4-5 6.688-.334.045-1.437.15-2.526.334a21.787 21.787 0 00-10.962 4.933c-5.838 4.964-11.857 9.822-19 12.982-2.826 1.25-5.389 2.071-8.19-.115-1.39-1.086-3.165-1.677-5.389-2.809 3.887-2.524 7.3-4.94 10.9-7.039 11.874-6.93 23.916-13.579 35.677-20.7 4.15-2.514 7.675-6.06 11.865-9.442zm-224.409-375.921c8.256-.419 12.165 3.5 11.51 11.188-.25 2.928.368 5.073 2.961 6.672a15 15 0 013.649 3.259c.659.8 1.367 2.235 1.079 3.039-1.955 5.485.322 10.651.88 15.939a7.364 7.364 0 01-.312 1.711l-5.1-.341v9.661c-6.107-3.587-10.579-7.441-8.771-15.139h-8.09c-1.116 1.5-2.257 3.025-3.829 5.13-.24-3.915-.08-6.723 2.947-8.837 1.387-.967 2.208-2.744 3.456-4.375 5 2.389 8.563-.361 12.332-4-3.107-4.043-1.929-9.965-6.072-14.507l-5.157 3.632a36.64 36.64 0 013.377 3.87 24.628 24.628 0 011.708 3.993c-1.048.776-1.785 1.428-2.616 1.919-4.306 2.543-5.851 1.911-7.341-2.871-.229-.735-.593-1.835-1.128-2-5.334-1.654-4.6-6.035-4.663-10.056a5.944 5.944 0 01.556-1.6c4.239 1.471 8.151 6.4 13.263 1.523-2.7-2.8-5.724-5.13-7.669-8.155-2.694-4.188-6.526-5.528-11.533-6.286l-.735 8.221c-3.331-4.055-7.31-6.811-4.8-12.216a13.312 13.312 0 00-2.3-2.089c-4.147-2.216-4.586-6.05-4.562-10.1 0-.642-.045-1.578.33-1.882 4.424-3.56 2.166-8.884 3.553-13.23a20.636 20.636 0 00.521-3.694c5.543-2.643 7.312-1.843 8.5 3.558.353 1.6.792 3.183 1.3 4.738a9.7 9.7 0 01-.427 7.113 21.957 21.957 0 00-1.574 7.572c-.167 5.143 1.744 6.916 6.856 7.642a30.085 30.085 0 016.978 1.872c3.605 1.465 3.85 2.354 2.366 6.017-.359.895-.813 1.755-1.443 3.109zM850.46 138.489c-2.025 2.6-4.053 5.2-6.434 8.25 1.595 3.242 6.432-.7 8.878 3.025-1.287 1.611-2.569 3.421-4.065 5.032-1.29 1.387-1.374 2.941-.007 3.823 4.819 3.1 6.12 8.746 9.6 12.816 1.8 2.11 2.819 4.892 4.494 7.919a18.952 18.952 0 002.157.082c1.909-.078 3.967.037 4.211 2.311.2 1.863-.137 3.987-2.559 4.73a4.811 4.811 0 00-1.166.778c.345 1.363 1.26 2.91.837 3.858-.488 1.092-2.077 1.839-3.336 2.407-2.756 1.242-5.6.679-8.541.568-4.8-.181-10-1.457-14.379 2.233-.862.726-2.43.648-3.683.872-1.96.349-3.928.638-5.709.923a20.568 20.568 0 0110.258-9.019l-8.812-1.619c.642-2.75 2.337-2.719 3.876-3.205 1.063-.337 2.483-1.326 2.635-2.212.133-.776-1.283-1.816-2.235-3.019 1.541-3.249 5.592-1.27 8.276-3.45l-3.084-9.036-6.794.735v-3.664l-6.286-3.521 2.8-2.67c-.687-1.2-2.017-2.465-1.805-3.363a20.63 20.63 0 012.85-6.809 19.711 19.711 0 015-4.613c1.11-.786 3-1.7 3.947-1.26 2.91 1.326 4.2-.17 5.668-2.159a9.68 9.68 0 012.537-1.757zm706.131 459.355l-5.291 4.1c5.9 1.783 10.8 3.337 15.75 4.7a4.838 4.838 0 003.355-.3c4.33-2.483 8.66-.731 12.935-.131 3.542.5 7 1.566 10.511 2.3a16.245 16.245 0 0012.307-1.814c1.488-.919 2.937-1.64 4.554-.718 5.362 3.062 10.784 1.74 16.193.31 4.529-1.2 4.513-1.262 10.3.332-4.147 2.578-8.157 4.786-11.845 7.441-3.639 2.623-6.953 5.7-10.72 8.229.62-7.26 8.25-7.909 12.116-13.253-6.2 1.43-11.713 2.943-17.326 3.889a17.183 17.183 0 01-7.62-.663 20.118 20.118 0 00-10.507-.107c-4.564.956-9.368 1.777-13.583-1.714-1.868-1.547-3.967-.827-6 .152a22.141 22.141 0 01-5.479 2.023 11.2 11.2 0 01-5.315-.178 126.324 126.324 0 00-28.229-5.625c-5.592-.527-11.49-1.114-15.711-5.793a13.107 13.107 0 00-9.616-4.162 17.294 17.294 0 01-2.333-.431c4.574-8.246 12-7.712 18.229 1.2h10.994l2.51-5.469a28.366 28.366 0 014.681 2.571 7.823 7.823 0 007.259 1.755c2.55-.565 5.381-1.222 7.881 1.356zm71.73-60.482c0 2.027.484 3.665-.107 4.675a12.2 12.2 0 01-4.19 4.556c-4.178 2.288-8.629 2.838-13.008.174-1.115-.679-2.282-1.279-3.452-1.861-3.6-1.8-6.585-1.611-8.644.513-1.919 1.98-2.093 6.979-.232 9.709.811 1.19 1.843 2.227 2.945 3.532 4.449-1.295 8.048-7.221 13.5-2.77-.737 4.344-5.29 4.5-7.864 7.174 1.935 2.309 3.657 4.607 3.418 7.845-.069.944 1.033 1.96 1.554 2.965a47.414 47.414 0 012.826 5.682c1.359 3.813.52 5.676-3.25 8.044-1.611-.612-3.273-1.24-4.387-1.662-1.168-3.056-2.362-5.676-3.136-8.414-.406-1.434-.072-3.08-.072-5.368l-4.595-3.612c-2.145 1.137-1.663 2.477-1.426 4 .57 3.686 1.007 7.406 1.209 11.129.084 1.566-.563 3.171-.923 5l-6.61 1.541c0-2.6-.394-4.8.082-6.784.948-3.948-.167-7.509-1.685-10.9-1.337-2.986-.962-5.541.177-8.408 2.159-5.438 4.533-10.737 4.529-16.914 0-5.652 3.548-7.735 9.229-6.674 4.168.78 8.365 1.453 12.578 1.9a8.436 8.436 0 004.192-.948c2.212-1.035 4.278-2.377 7.342-4.124z"/><path d="M382.839 42.906c-1.5-5.139-5.549-5.483-9.762-5.65-2.023-.08-4.032-.447-6.048-.685l-.051-1.426c1.3-.224 2.6-.435 3.893-.673 2.364-.433 4.919-.447 7.053-1.4 6.971-3.109 14.5-3.784 21.793-5.5.415-.1.919.2 1.361.306.1 2.473.1 2.473-2.575 6.119a25.972 25.972 0 0111.683 4.443 6.593 6.593 0 007.437.006c2.5-1.562 5.009-3.1 7.584-4.533a48.342 48.342 0 014.67-1.947l-.285 4.283 3.479 1.8a4.6 4.6 0 01-.261 1.377 6.77 6.77 0 01-7.092 3.37c-7.88-.917-15.266.673-22.5 3.546-.911.363-1.857.64-2.778.977a5.468 5.468 0 01-6.2-1.162c-3.072-2.712-6.696-4.778-11.401-3.251zm378.354 61.01c-.059-1.03-.135-2.309-.24-4.1-4.2 1.837-7.076-.616-10.735-2.59l8.927-4.954c5.305 5.036 11.638 4.833 18.3 3.511 3.829-.761 7.781-.882 11.676-1.315 6.949-.774 4.958-.408 10.107 4.19-1.02 3.905-3.448 5.9-7.525 7.08-7.513 2.169-14.882 4.769-22.141 5.1-2.998-2.475-5.598-4.632-8.369-6.922zM350.629 390.231a8.367 8.367 0 00-6.612 4.825c-.875 1.736-2.961 2.859-4.6 4.342-2.155-4.145-2.163-4.19.326-6.622.7-.683 1.522-1.24 2.212-1.931a9.253 9.253 0 019.161-2.892c4.283.868 8.857.308 13.142 1.176a127.792 127.792 0 0116.887 4.82c1.834.646 3.23 2.653 4.717 4.143 3.021 3.027 5.9 6.181 10.676 6.306.86.021 1.7.809 3.252 1.6-1.668 1.125-2.83 2.477-4.194 2.731a87.2 87.2 0 01-20.649 1.66c-.517-2.479-1.159-4.654-1.393-6.871-.427-4.01-2.992-6.056-6.4-7.273-3.691-1.322-7.488-2.348-11.2-3.62-1.629-.56-3.164-1.411-5.325-2.394zm454.284-203.256c-1.5-5.36 5.346-4.441 5.758-8.617-4.053-1.3-2.693-4.8-2.953-8.336a19 19 0 013.577.035c3.614.716 3.6.774 4.987-2.436 1.592-3.684 3.193-4.609 7.29-4.186a17.184 17.184 0 012.433.337c1.424.355 2.824.809 4.4 1.268.914 2.126 1.8 4.074-.753 5.992-.819.616-1.1 2.167-1.293 3.347-.267 1.6-.021 3.3-.363 4.874a34.49 34.49 0 01-1.861 4.866c-3.626-.222-6.733 1.3-9.881 3.117a10.528 10.528 0 01-11.341-.261zM432.777 420.719c-4.408 0-8.35-.23-12.241.1a8.583 8.583 0 00-5.036 2.268c-3.4 3.476-4.435 3.585-7.478-.421-4.174.023-8.59 2.307-12.873-.646 2.332-5.085 7.252-2.294 11.231-3.735l.722-9.3c1.32.238 2.56.4 3.766.694 3.183.786 6.3 1.512 9.6.275a4.689 4.689 0 015.36 1.326c1.223 1.262 2.967 2.013 4.459 3.021 2.043 1.384 3.279 3.128 2.49 6.418zm1242.727 433.397l5.937-20.314c3.314.94 5.313 4.346 8.984 3.583 3.144-.655 6.341-1.047 10.55-1.72-4.4 6.53-6.364 13.524-13.259 17.281a14.031 14.031 0 01-12.212 1.17zM455.659 47.078c-.878 3.242-1.543 5.7-2.438 8.995-4.365 1.74-9.327 3.743-14.309 5.693-1.625.636-3.037.651-4.326-1.008-1.654-2.128-3.637-4-5.836-6.372l2.477-2.7 5.732 3.829.763-6.92zm1131.217 347.1c-4.792-4.287-7.258-8.917-4.925-14.9 1.219-3.127 1.43-7.221 6.165-7.981 4.18 7.952 2.436 15.303-1.24 22.881zM459.562 23.872c.056-3.029 1.379-4.195 3.706-4.158a24.312 24.312 0 015.853.46c3.867 1.045 7.636 2.438 11.818 3.809-2.7 3.807-5.958 4.3-9.483 3.413-3.942-.994-7.806-2.299-11.894-3.524zm1066.392 385.117c3.163-.1 3.928.884 3.023 3.581-.975 2.9-1.806 5.959-5.071 7.308-1.991.821-4.049 1.576-5.911-.07-1.615-1.43-1.428-4.5-.373-6.77 1.835-3.952 5.839-2.752 8.332-4.049zM484.543 20.998c2.311-.936 4.256-1.734 6.209-2.514 1.931-.772 3.292-.021 3.661 1.876.484 2.485.611 5.04.882 7.478-6.736 1.783-8.568.588-10.752-6.84zm-64.357 8.36c3.813-3.46 6.9-6.821 11.447-8.447 2.159-.77 3.63-.967 5.02.934-3.761 5.76-9.012 8.239-16.467 7.513zM556.914 714.26l.673 5.664-3.591 1.03zm-.359-6.582c1.4 1.338 3.606 2.489 1.418 5.015l-1.418-5.015z"/></svg>