<svg xmlns="http://www.w3.org/2000/svg" width="271.572" height="271.571" viewBox="0 0 271.572 271.571"><g transform="translate(-1588.49 -164.29)"><circle cx="135.786" cy="135.786" r="135.786" transform="translate(1588.49 164.29)" fill="#adabc9"/><path d="M549.6,579.9c0,21.435-33.7,1.831-69.825,1.831s-72.669,18.794-72.669-2.641c0-12.223,11.646-29.221,28.354-41.568h0c12.588-9.3,28.046-15.969,43.575-15.969,15.969,0,31.611,7.214,44.09,17.117C538.877,551.154,549.6,567.933,549.6,579.9Z" transform="translate(1245.919 -211.584)" fill="#444053"/><path d="M559.19,538.647c-19.2-2.892-53.936-6.417-87.66-1.149,12.588-9.3,28.046-15.969,43.575-15.969C531.069,521.53,546.712,528.744,559.19,538.647Z" transform="translate(1209.853 -211.573)" fill="#f6f8fb"/><path d="M355.506,281.31s-40.9,26.149-40.568,67.052S355.506,281.31,355.506,281.31Z" transform="translate(1297.523 -77.085)" fill="#5b6081" opacity="0.25"/><path d="M418.912,447.844c2.584-.145,14.745-1.061,22.47-5.467a8.754,8.754,0,0,1,4.08-1.2c2.456-.07,5.282.955,3.473,6.695-2.931,9.388-19.952,19.952-30.515,19.367-10.159-.563-22.21-4.657-30.168-19.05a8.8,8.8,0,0,1-1.087-4.529c.092-2.9,1.149-6.545,6.6-2.487,7.368,5.48,21.347,6.519,24.151,6.673a9.293,9.293,0,0,0,.995,0Z" transform="translate(1257.088 -165.572)" fill="#444053"/><path d="M640.912,447.844c2.584-.145,14.745-1.061,22.47-5.467a8.754,8.754,0,0,1,4.08-1.2c2.456-.07,5.282.955,3.473,6.695-2.931,9.388-19.952,19.952-30.516,19.367-10.159-.563-22.21-4.657-30.168-19.05a8.8,8.8,0,0,1-1.087-4.529c.092-2.9,1.149-6.545,6.6-2.487,7.368,5.48,21.347,6.519,24.151,6.673a9.292,9.292,0,0,0,.995,0Z" transform="translate(1132.801 -165.572)" fill="#444053"/></g></svg>